<?xml version="1.0" encoding="UTF-8" standalone="no"?><!DOCTYPE svg PUBLIC "-//W3C//DTD SVG 1.1//EN" "http://www.w3.org/Graphics/SVG/1.1/DTD/svg11.dtd"><svg width="100%" height="100%" viewBox="0 0 261 312" version="1.1" xmlns="http://www.w3.org/2000/svg" xmlns:xlink="http://www.w3.org/1999/xlink" xml:space="preserve" xmlns:serif="http://www.serif.com/" style="fill-rule:evenodd;clip-rule:evenodd;stroke-linejoin:round;stroke-miterlimit:2;"><path d="M48.625,311.337l211.794,-4.459l-7.857,-22.722c-28.434,9.781 -99.796,21.916 -203.937,27.181Z" style="fill-rule:nonzero;"/><path d="M78.612,301.206c61.6,-6.068 145.563,-17.603 181.807,-34.037l-12.732,-33.182c-39.287,28.241 -113.906,52.191 -169.075,67.219Z" style="fill-rule:nonzero;"/><path d="M193.425,0c-0,0 -12.966,31.338 -63.216,60.513c-34.375,19.959 -89.147,33.496 -89.147,33.496l-41.062,212.872c0,0 94.719,-27.79 166.406,-76.719c68.075,-46.465 77.803,-71.318 77.803,-71.318l-50.784,-158.844Zm-46.338,147.753c-33.562,19.488 -79.678,34.184 -104.553,41.309l15.322,-79.437c18.835,-5.341 55.585,-16.888 82.119,-32.294c20.631,-11.978 35.653,-24.375 46.447,-35.359l19.575,61.219c-13.891,13.921 -32.956,29.493 -58.91,44.562Z" style="fill-rule:nonzero;"/><path d="M173.716,240.869c-23.491,16.037 -64.072,36.065 -88.216,47.372c50.65,-14.588 136.95,-46.485 166.272,-74.288l-11.734,-27.8c-11.904,13.013 -32.151,31.394 -66.322,54.716Z" style="fill-rule:nonzero;"/><path d="M127.933,100.479c-2.043,0.739 -3.938,1.835 -5.595,3.238c1.266,0.879 2.431,1.897 3.471,3.037c2.654,-2.025 5.936,-3.047 9.269,-2.884c3.334,0.162 6.503,1.495 8.947,3.767c2.444,2.271 4.009,5.334 4.414,8.645c0.407,3.313 -0.372,6.66 -2.195,9.457c-1.824,2.793 -4.574,4.855 -7.77,5.815c-3.195,0.964 -6.628,0.764 -9.691,-0.558c-0.741,1.354 -1.629,2.62 -2.649,3.775c4.557,2.269 9.848,2.563 14.629,0.811c6.254,-2.301 10.811,-7.761 11.955,-14.329c1.143,-6.569 -1.297,-13.25 -6.405,-17.532c-5.11,-4.281 -12.114,-5.516 -18.38,-3.242l0,-0Z" style="fill-rule:nonzero;"/><path d="M120.193,112.444c-0.803,-0.905 -1.716,-1.703 -2.718,-2.376c-1.503,3.18 -2.075,6.72 -1.65,10.212c0.424,3.49 1.824,6.79 4.04,9.522c1.119,-1.206 2.002,-2.607 2.611,-4.136c-2.338,-3.627 -2.889,-8.126 -1.497,-12.209c-0.238,-0.354 -0.503,-0.693 -0.786,-1.012l-0,-0.001Z" style="fill-rule:nonzero;"/><path d="M110.98,101.906c-0.074,0.219 -0.957,3.484 -1.284,4.375l-0.004,-0.002c2.793,-0.149 5.565,0.51 7.99,1.9c3.316,1.908 5.761,5.026 6.819,8.702c1.056,3.676 0.643,7.619 -1.155,10.994c-5.62,10.766 -21.68,10.065 -26.402,-1.136c-1.175,-2.744 -1.489,-5.78 -0.902,-8.707c0.589,-2.928 2.051,-5.607 4.195,-7.685c-1.419,-0.659 -2.804,-1.396 -4.147,-2.207c-2.315,2.591 -3.882,5.76 -4.535,9.172c-0.653,3.412 -0.363,6.935 0.833,10.196c5.808,15.984 28.354,16.961 35.446,1.535c6.016,-12.123 -3.672,-27.681 -16.853,-27.137l-0.001,-0Z" style="fill-rule:nonzero;"/><path d="M100.572,108.616c1.444,0.593 3.814,1.571 5.283,2.165c0.117,-0.003 0.232,-0.053 0.317,-0.137c0.799,-2.215 2.289,-5.716 2.958,-7.881c0.344,-2.596 -0.89,-4.963 -3.113,-5.554c-2.784,-0.654 -3.909,3.308 -3.916,3.346c-0.047,0.16 -0.165,0.291 -0.317,0.357c-0.153,0.065 -0.327,0.061 -0.475,-0.015c-4.265,-2.348 -7.732,1.365 -4.107,5.898c0.727,0.908 2.335,1.358 3.37,1.821l0,0Z" style="fill-rule:nonzero;"/></svg>